<svg width="24" height="24" viewBox="0 0 24 24" fill="none" xmlns="http://www.w3.org/2000/svg">
<path d="M11.9999 23.9998C18.6273 23.9998 23.9998 18.6273 23.9998 11.9999C23.9998 5.37254 18.6273 0 11.9999 0C5.37254 0 0 5.37254 0 11.9999C0 18.6273 5.37254 23.9998 11.9999 23.9998Z" fill="white"/>
<path d="M19.3497 8.62387C18.8355 8.8519 18.2823 9.00613 17.7022 9.07501C18.2945 8.72013 18.7491 8.15862 18.9636 7.48844C18.4094 7.81722 17.7952 8.05573 17.1422 8.18429C16.6189 7.62705 15.8735 7.27881 15.048 7.27881C13.4642 7.27881 12.1797 8.56334 12.1797 10.1471C12.1797 10.3719 12.2051 10.5908 12.2543 10.8008C9.87053 10.6813 7.75689 9.5394 6.34209 7.80353C6.09524 8.22707 5.95363 8.72013 5.95363 9.24571C5.95363 10.2406 6.46038 11.1189 7.2296 11.6331C6.75964 11.6184 6.31707 11.4894 5.93053 11.274C5.93032 11.2862 5.93032 11.2984 5.93032 11.3104C5.93032 12.7001 6.91943 13.8593 8.23134 14.1226C7.99091 14.1885 7.737 14.2234 7.47581 14.2234C7.29057 14.2234 7.1111 14.2056 6.93612 14.1723C7.30105 15.3115 8.36011 16.1409 9.61555 16.1642C8.6337 16.9336 7.39709 17.392 6.05289 17.392C5.82186 17.392 5.59298 17.3785 5.36902 17.3518C6.63772 18.1659 8.14578 18.6406 9.7655 18.6406C15.0414 18.6406 17.9266 14.27 17.9266 10.4793C17.9266 10.355 17.9238 10.2312 17.9182 10.1084C18.4791 9.70411 18.9653 9.19907 19.3497 8.62387Z" fill="#55ACEE"/>
</svg>
