<svg width="96" height="96" viewBox="0 0 96 96" fill="none" xmlns="http://www.w3.org/2000/svg">
<path d="M90.6876 26.0302C87.3261 19.5108 82.4239 13.7539 76.5117 9.38175C75.644 8.74033 74.4211 8.92364 73.7793 9.79103C73.1376 10.6584 73.3212 11.8817 74.1886 12.5234C79.6218 16.5413 84.1261 21.831 87.2151 27.821C90.4515 34.0975 92.0925 40.8865 92.0925 48.0002C92.0925 72.3128 72.3125 92.0928 47.9998 92.0928C23.6872 92.0928 3.90716 72.3128 3.90716 47.9998C3.90716 23.6869 23.6872 3.90716 47.9998 3.90716C49.0785 3.90716 49.9534 3.03229 49.9534 1.95358C49.9534 0.874879 49.0785 0 47.9998 0C21.5327 0 0 21.5327 0 47.9998C0 74.467 21.5327 95.9997 47.9998 95.9997C74.467 95.9997 95.9997 74.467 95.9997 47.9998C95.9997 40.3665 94.163 32.7697 90.6876 26.0302Z" fill="white"/>
<path d="M35.7177 25.7121C35.1069 26.0595 34.7295 26.7081 34.7295 27.4104V70.2831C34.7295 71.3621 35.6044 72.2366 36.6831 72.2366C37.7618 72.2366 38.6367 71.3621 38.6367 70.2831V30.8471L67.5604 48.0656L46.2911 61.769C45.3843 62.3535 45.1225 63.5624 45.707 64.4692C46.2918 65.3763 47.5004 65.6381 48.4075 65.0533L72.3275 49.6418C72.896 49.2755 73.2346 48.6413 73.2225 47.965C73.2105 47.2887 72.8497 46.6669 72.2685 46.3207L37.6823 25.7316C37.078 25.3725 36.3285 25.3647 35.7177 25.7121Z" fill="white"/>
</svg>
