<svg width="24" height="24" viewBox="0 0 24 24" fill="none" xmlns="http://www.w3.org/2000/svg">
<path fill-rule="evenodd" clip-rule="evenodd" d="M0 12C0 5.37285 5.37285 0 12 0C18.6272 0 24 5.37285 24 12C24 18.6272 18.6272 24 12 24C5.37285 24 0 18.6272 0 12ZM15.5766 19.2507C17.5849 19.2507 19.2183 17.6172 19.2183 15.6089V8.4558C19.2183 6.44774 17.5849 4.81401 15.5766 4.81401H8.42345C6.41538 4.81401 4.78166 6.44774 4.78166 8.4558V15.6089C4.78166 17.6172 6.41538 19.2507 8.42345 19.2507H15.5766ZM15.5766 6.38516H8.42348C7.28174 6.38516 6.35284 7.31406 6.35284 8.4558V15.6089C6.35284 16.7506 7.28174 17.6798 8.42348 17.6798H15.5766C16.7183 17.6798 17.6475 16.7509 17.6475 15.6089V8.4558C17.6475 7.31406 16.7186 6.38516 15.5766 6.38516ZM12 15.7506C9.94998 15.7506 8.28203 14.0827 8.28203 12.0323C8.28203 9.9823 9.94998 8.31435 12 8.31435C14.0503 8.31435 15.7183 9.9823 15.7183 12.0323C15.7183 14.0824 14.0501 15.7506 12 15.7506ZM15.8378 9.08308C15.3525 9.08308 14.9578 8.68842 14.9578 8.20338C14.9578 7.71835 15.3525 7.32369 15.8378 7.32369C16.3229 7.32369 16.7175 7.71835 16.7175 8.20338C16.7175 8.68842 16.3229 9.08308 15.8378 9.08308ZM12 9.88552C10.8166 9.88552 9.85291 10.8486 9.85291 12.0321C9.85291 13.2161 10.8166 14.1795 12 14.1795C13.184 14.1795 14.1469 13.2161 14.1469 12.0321C14.1469 10.8489 13.1837 9.88552 12 9.88552Z" fill="url(#paint0_linear)"/>
<defs>
<linearGradient id="paint0_linear" x1="24" y1="0" x2="0" y2="24" gradientUnits="userSpaceOnUse">
<stop offset="0.12109" stop-color="#7C39AA"/>
<stop offset="0.515625" stop-color="#F4070F"/>
<stop offset="0.862143" stop-color="#F7C903"/>
</linearGradient>
</defs>
</svg>
