<svg width="24" height="24" viewBox="0 0 24 24" fill="none" xmlns="http://www.w3.org/2000/svg">
<path d="M11.9999 23.9998C18.6273 23.9998 23.9998 18.6273 23.9998 11.9999C23.9998 5.37254 18.6273 0 11.9999 0C5.37254 0 0 5.37254 0 11.9999C0 18.6273 5.37254 23.9998 11.9999 23.9998Z" fill="#55ACEE"/>
<path d="M19.3497 8.62396C18.8355 8.85199 18.2823 9.00622 17.7022 9.0751C18.2945 8.72022 18.7491 8.15871 18.9636 7.48853C18.4094 7.81731 17.7952 8.05582 17.1422 8.18438C16.6189 7.62715 15.8735 7.2789 15.048 7.2789C13.4642 7.2789 12.1797 8.56343 12.1797 10.1472C12.1797 10.372 12.2051 10.5909 12.2543 10.8009C9.87053 10.6813 7.75689 9.5395 6.34209 7.80362C6.09524 8.22716 5.95363 8.72022 5.95363 9.2458C5.95363 10.2407 6.46038 11.119 7.2296 11.6332C6.75964 11.6185 6.31707 11.4895 5.93053 11.2741C5.93032 11.2863 5.93032 11.2985 5.93032 11.3105C5.93032 12.7002 6.91943 13.8594 8.23134 14.1227C7.99091 14.1886 7.737 14.2235 7.47581 14.2235C7.29057 14.2235 7.1111 14.2057 6.93612 14.1723C7.30105 15.3116 8.36011 16.141 9.61555 16.1643C8.6337 16.9337 7.39709 17.3921 6.05289 17.3921C5.82186 17.3921 5.59298 17.3786 5.36902 17.3519C6.63772 18.166 8.14578 18.6407 9.7655 18.6407C15.0414 18.6407 17.9266 14.2701 17.9266 10.4794C17.9266 10.3551 17.9238 10.2313 17.9182 10.1085C18.4791 9.70421 18.9653 9.19917 19.3497 8.62396Z" fill="#F1F2F2"/>
</svg>
