<svg width="24" height="24" viewBox="0 0 24 24" fill="none" xmlns="http://www.w3.org/2000/svg">
<path d="M13.3837 8.81063H11.9152V7.34219C11.9152 6.53089 11.2581 5.87375 10.4468 5.87375C9.63549 5.87375 8.97836 6.53089 8.97836 7.34219V8.81063H7.50992C6.69862 8.81063 6.04148 9.46777 6.04148 10.2791C6.04148 11.0904 6.69862 11.7475 7.50992 11.7475H8.97836V13.2159C8.97836 14.0272 9.63549 14.6844 10.4468 14.6844C11.2581 14.6844 11.9152 14.0273 11.9152 13.2159V11.7475H13.3837C14.195 11.7475 14.8521 11.0904 14.8521 10.2791C14.8521 9.46777 14.195 8.81063 13.3837 8.81063ZM23.4021 21.4928L18.5276 16.6183C19.8999 14.8709 20.7259 12.6734 20.7259 10.2791C20.7259 4.60209 16.1238 0 10.4468 0C4.76981 0 0.167725 4.60209 0.167725 10.2791C0.167725 15.956 4.76981 20.5581 10.4468 20.5581C12.6693 20.5581 14.7207 19.8459 16.4021 18.6469L21.325 23.5699C21.8984 24.1433 22.8279 24.1433 23.4014 23.5699C23.9755 22.9965 23.9755 22.0662 23.4021 21.4928ZM16.1539 15.4495C15.9579 15.5207 15.7714 15.6249 15.6143 15.7828C15.4697 15.9274 15.3624 16.0948 15.2905 16.2733C13.9667 17.3445 12.2824 17.9884 10.4468 17.9884C6.18907 17.9884 2.73754 14.5368 2.73754 10.2791C2.73754 6.02138 6.18907 2.56978 10.4468 2.56978C14.7046 2.56978 18.1561 6.02134 18.1561 10.2791C18.1561 12.271 17.394 14.0809 16.1539 15.4495Z" fill="white"/>
</svg>
